<?xml version="1.0" standalone="no"?>
<!DOCTYPE svg PUBLIC "-//W3C//DTD SVG 20010904//EN"
 "http://www.w3.org/TR/2001/REC-SVG-20010904/DTD/svg10.dtd">
<svg version="1.0" xmlns="http://www.w3.org/2000/svg"
 width="1280.000000pt" height="1280.000000pt" viewBox="0 0 1280.000000 1280.000000"
 preserveAspectRatio="xMidYMid meet">

<g transform="translate(0.000000,1280.000000) scale(0.100000,-0.100000)"
fill="#000000" stroke="none">
<path d="M7650 10775 c-170 -46 -325 -141 -425 -260 -22 -26 -45 -53 -51 -59
-26 -27 -87 -124 -114 -181 -42 -88 -57 -89 -135 -11 -73 73 -136 111 -250
151 -74 27 -91 29 -230 28 -82 0 -168 -5 -190 -11 -153 -42 -183 -51 -210 -66
-16 -9 -37 -16 -46 -16 -9 0 -28 -9 -42 -20 -14 -11 -29 -20 -34 -20 -8 0 -80
-46 -118 -74 -73 -56 -101 -79 -151 -127 -92 -89 -244 -282 -244 -311 0 -16
-68 -8 -93 12 -62 49 -213 84 -329 77 -225 -14 -512 -224 -733 -536 -18 -26
-59 -87 -122 -182 -12 -19 -23 -39 -23 -45 0 -5 -15 -26 -33 -48 l-33 -38
-128 12 c-431 43 -713 -72 -952 -388 -68 -89 -193 -332 -194 -375 0 -6 -10
-32 -21 -57 -12 -27 -26 -91 -34 -160 -8 -63 -19 -144 -26 -180 -9 -45 -13
-195 -13 -495 -1 -407 0 -436 21 -535 12 -58 27 -159 32 -225 35 -443 225
-804 543 -1032 45 -32 94 -71 110 -87 l28 -28 0 -157 c1 -262 17 -428 66 -656
31 -147 45 -201 59 -235 8 -19 19 -53 24 -75 6 -22 20 -58 31 -80 11 -21 20
-44 20 -50 0 -33 138 -276 225 -395 11 -15 29 -40 40 -56 47 -70 191 -216 285
-290 105 -83 164 -123 245 -164 22 -11 47 -25 55 -30 31 -18 147 -70 158 -70
6 0 19 -11 30 -24 17 -22 20 -49 26 -233 4 -114 11 -237 16 -273 6 -36 15
-135 21 -220 6 -85 22 -235 35 -333 13 -98 24 -193 24 -212 0 -18 4 -45 10
-60 9 -24 13 -26 67 -23 l58 3 3 63 c2 35 -4 123 -14 195 -30 241 -33 271 -34
357 0 47 -7 119 -15 160 -8 41 -20 168 -26 282 -16 267 -22 258 143 207 51
-16 72 -18 87 -9 26 13 49 85 35 108 -10 15 -131 60 -167 61 -24 1 -172 49
-223 72 -23 11 -46 19 -51 19 -18 0 -216 106 -286 153 -100 67 -163 120 -252
213 -80 83 -88 92 -144 169 -17 22 -39 52 -50 66 -12 15 -24 35 -27 45 -4 11
-13 26 -19 34 -7 8 -36 60 -63 115 -78 154 -123 271 -152 400 -10 44 -23 92
-29 107 -5 14 -13 55 -16 90 -4 34 -13 91 -21 126 -16 74 -34 290 -34 418 0
118 7 125 88 95 214 -81 403 -121 576 -121 112 0 238 27 324 70 105 52 211
167 241 261 7 20 21 45 32 55 20 18 22 18 52 0 18 -10 75 -29 127 -43 129 -35
322 -37 419 -4 35 11 69 21 76 21 7 0 52 18 99 41 93 44 114 44 92 1 -8 -15
-17 -46 -21 -67 -4 -22 -16 -74 -28 -115 -17 -63 -20 -103 -20 -255 0 -156 3
-188 20 -237 12 -31 24 -74 28 -96 4 -24 17 -50 34 -66 l28 -26 46 25 c44 25
45 27 40 63 -3 20 -12 55 -20 77 -28 79 -33 112 -32 265 0 144 2 164 33 280
40 148 56 191 102 286 31 64 89 162 111 189 5 6 19 25 32 43 32 46 52 51 135
35 227 -45 447 14 607 163 103 94 210 247 239 339 7 22 17 45 21 51 14 17 49
188 61 289 5 50 14 94 19 99 5 6 31 -13 65 -45 31 -30 61 -59 68 -65 12 -12
88 -61 121 -79 11 -7 29 -17 40 -23 11 -6 49 -24 85 -39 64 -28 68 -28 265
-28 181 0 204 2 245 21 25 11 58 24 74 28 16 4 41 16 54 27 14 10 29 19 34 19
15 0 108 62 108 72 0 4 14 8 30 8 l30 0 -7 -57 c-24 -178 10 -479 68 -600 16
-34 52 -84 79 -112 55 -56 73 -57 104 -8 25 41 27 73 6 92 -39 36 -78 120 -99
218 -30 138 -30 371 0 512 25 117 36 148 49 140 9 -6 37 -91 64 -195 23 -87
45 -150 79 -220 38 -78 65 -88 121 -45 31 24 33 29 26 57 -5 16 -14 36 -20 43
-12 15 -46 107 -70 195 -10 36 -22 77 -28 91 -6 14 -13 52 -17 85 -3 32 -14
100 -23 149 -14 74 -17 156 -17 455 0 252 4 382 12 420 7 30 17 105 23 165 6
61 16 128 22 150 6 22 19 83 29 135 21 114 44 209 65 270 8 25 20 63 25 85 5
22 18 63 29 90 10 28 33 88 50 134 17 46 35 91 40 100 5 9 17 32 25 51 60 131
143 247 248 346 49 46 95 84 102 84 7 0 18 7 26 16 13 16 52 38 119 69 19 9
53 25 76 36 22 10 47 19 55 19 8 0 40 9 72 20 43 15 82 20 167 20 97 0 117 -3
176 -27 85 -35 144 -92 185 -178 30 -64 31 -71 27 -163 -3 -64 -14 -126 -31
-182 -30 -102 -47 -142 -131 -320 -14 -30 -26 -61 -26 -67 0 -7 -9 -32 -19
-55 -24 -53 -48 -124 -67 -202 -9 -33 -20 -68 -25 -78 -6 -10 -16 -54 -24 -98
-8 -44 -18 -87 -24 -97 -5 -10 -14 -57 -21 -103 -6 -47 -18 -107 -25 -135 -26
-94 -35 -258 -35 -634 0 -207 -4 -414 -10 -461 -5 -47 -16 -177 -25 -289 -8
-112 -17 -207 -20 -211 -3 -4 -14 -66 -24 -136 -37 -242 -128 -601 -175 -689
-9 -16 -16 -39 -16 -50 0 -11 -12 -42 -25 -70 -14 -27 -25 -55 -25 -61 0 -10
-24 -68 -65 -159 -7 -16 -27 -61 -45 -100 -17 -38 -35 -77 -40 -85 -5 -8 -30
-55 -55 -105 -26 -49 -57 -108 -70 -130 -13 -22 -31 -52 -40 -68 -9 -15 -29
-46 -45 -70 -17 -23 -47 -66 -67 -96 -154 -225 -493 -579 -687 -716 -16 -11
-40 -29 -55 -40 -14 -11 -44 -32 -66 -46 -67 -43 -128 -81 -170 -107 -22 -14
-52 -33 -67 -44 -15 -10 -29 -18 -32 -18 -2 0 -33 -18 -67 -40 -35 -22 -77
-46 -94 -55 -16 -8 -52 -28 -80 -44 -27 -17 -68 -40 -90 -51 -22 -12 -62 -33
-90 -49 -27 -15 -106 -56 -175 -91 -69 -35 -137 -74 -152 -88 -30 -28 -27 -44
19 -93 l24 -27 50 21 c78 33 80 27 64 -173 -8 -91 -18 -205 -24 -255 -16 -145
-24 -665 -12 -825 11 -166 22 -207 56 -216 33 -8 93 14 100 37 4 10 1 63 -6
116 -20 155 -18 796 3 953 10 69 22 180 28 246 6 67 19 150 29 184 l17 63 80
43 c43 24 97 53 119 64 22 11 58 31 80 43 22 13 57 33 78 45 21 13 50 30 65
39 45 28 244 155 272 173 8 6 42 28 75 50 91 61 106 71 165 118 238 188 461
423 645 681 60 85 181 272 196 305 6 12 23 44 39 71 31 56 79 152 117 235 14
30 33 73 43 95 20 41 37 87 71 185 10 30 23 62 28 71 5 9 15 36 21 60 6 24 19
67 29 94 37 100 82 262 111 390 9 44 22 98 28 120 6 22 13 65 17 95 3 30 15
102 25 160 10 58 22 157 25 220 4 63 13 178 21 255 10 97 14 256 14 520 -1
377 7 532 35 630 7 28 19 86 24 129 6 43 18 100 26 125 8 25 22 73 31 106 34
133 43 164 74 250 18 50 40 113 50 141 10 28 23 60 28 70 47 88 108 238 128
309 31 116 36 161 32 270 -4 92 -9 119 -31 168 -30 63 -32 66 -96 138 -46 51
-108 93 -157 105 -16 4 -49 16 -74 27 -65 29 -277 28 -365 -1 -33 -11 -76 -24
-95 -28 -19 -3 -50 -14 -70 -24 -180 -87 -262 -139 -351 -222 -56 -53 -159
-173 -159 -186 0 -4 -4 -13 -9 -21 -13 -20 -41 3 -41 34 0 43 -50 274 -75 347
-34 100 -67 178 -88 208 -9 13 -17 29 -17 34 0 10 -22 45 -84 136 -97 142
-235 266 -399 358 -174 99 -423 135 -597 87z m328 -135 c164 -39 381 -178 495
-317 34 -41 64 -80 66 -87 2 -6 13 -22 23 -36 11 -14 26 -38 34 -55 7 -16 18
-37 23 -45 44 -69 97 -224 132 -385 18 -82 22 -131 21 -270 0 -150 -3 -181
-26 -269 -15 -54 -32 -108 -38 -120 -6 -11 -17 -43 -24 -71 -7 -27 -20 -70
-28 -95 -22 -64 -44 -159 -66 -280 -11 -57 -22 -111 -26 -120 -3 -8 -14 -85
-25 -170 -10 -85 -24 -186 -30 -225 -7 -43 -11 -199 -11 -408 l0 -338 -24 -29
c-13 -15 -24 -31 -24 -35 0 -10 -140 -175 -149 -175 -3 0 -23 -17 -45 -37 -62
-59 -150 -112 -276 -165 -50 -21 -70 -23 -230 -23 l-175 0 -65 33 c-118 61
-134 71 -193 123 -88 77 -169 184 -212 279 -8 19 -23 48 -32 64 -54 97 -83
722 -64 1389 6 237 16 459 21 492 5 33 14 130 20 215 6 85 18 196 26 245 7 50
19 133 24 185 13 115 44 234 70 268 11 13 20 29 20 35 0 28 126 196 189 252
18 17 41 38 50 48 8 9 20 17 25 17 5 0 24 11 42 25 18 14 36 25 41 25 4 0 22
7 38 16 49 27 195 62 260 63 33 0 97 -8 143 -19z m-1368 -355 c25 -9 59 -20
76 -26 49 -15 135 -80 177 -134 91 -118 106 -196 74 -365 -9 -47 -21 -155 -27
-240 -7 -85 -16 -175 -21 -200 -19 -94 -31 -605 -26 -1070 5 -491 16 -647 64
-920 9 -52 19 -162 21 -245 3 -126 0 -168 -19 -260 -30 -150 -77 -266 -148
-365 -42 -58 -146 -155 -197 -185 -56 -31 -203 -75 -254 -75 -51 0 -277 48
-303 64 -12 8 -33 17 -47 21 -13 4 -36 16 -50 25 -14 10 -52 34 -85 55 -68 44
-251 224 -292 288 -24 38 -54 95 -98 187 -18 37 -47 116 -71 190 -46 142 -53
169 -59 210 -4 25 -13 68 -20 95 -23 83 -55 449 -55 623 0 176 32 597 55 727
7 44 17 107 20 140 4 33 15 98 25 145 10 47 21 114 25 150 4 35 13 81 21 102
7 21 18 74 24 118 6 44 17 97 24 119 8 21 19 69 25 107 10 66 33 124 75 189
11 17 32 50 47 74 44 68 127 158 209 225 66 54 98 77 175 124 47 28 153 74
194 83 24 5 52 14 62 20 59 31 298 34 379 4z m-1430 -568 c30 -12 75 -36 100
-53 45 -31 45 -32 44 -87 -1 -31 -11 -91 -22 -134 -12 -43 -25 -103 -30 -133
-6 -30 -17 -89 -25 -130 -91 -443 -132 -813 -132 -1205 0 -395 28 -620 115
-925 63 -220 173 -446 268 -551 68 -77 82 -116 35 -105 -88 21 -148 27 -228
22 -163 -10 -279 -43 -432 -124 -47 -25 -129 -103 -170 -163 -33 -49 -35 -55
-22 -77 13 -23 105 -76 197 -114 112 -47 425 -42 523 8 137 69 203 141 215
232 4 31 8 80 8 107 1 47 2 50 26 47 14 -2 36 -14 50 -27 34 -31 154 -112 178
-119 35 -12 36 -53 2 -96 -36 -45 -142 -144 -179 -167 -14 -9 -35 -25 -46 -34
-43 -38 -178 -101 -265 -125 -134 -37 -286 -37 -392 -1 -97 33 -124 46 -227
116 -84 55 -197 160 -229 210 -9 14 -53 71 -97 126 -82 102 -88 109 -151 205
-67 100 -91 142 -149 260 -20 41 -42 86 -49 100 -8 14 -19 43 -26 65 -7 22
-16 45 -20 50 -5 6 -13 30 -19 55 -7 25 -18 61 -26 80 -8 19 -22 67 -30 105
-8 39 -21 98 -28 131 -22 95 -41 392 -33 539 10 205 26 356 41 405 8 25 17 68
20 95 7 49 46 211 67 270 5 17 18 57 28 90 43 141 96 277 122 317 10 14 18 30
18 34 0 4 11 24 24 43 22 34 114 173 164 247 53 80 329 344 359 344 5 0 24 10
43 23 38 25 137 63 185 70 53 9 138 -3 195 -26z m-1227 -812 c31 -12 32 -54 4
-140 -69 -207 -77 -235 -77 -255 0 -11 -7 -37 -15 -57 -9 -20 -22 -78 -30
-127 -8 -50 -21 -120 -29 -155 -8 -35 -20 -157 -27 -272 -11 -181 -11 -237 3
-421 9 -117 23 -231 31 -253 8 -22 17 -62 21 -90 4 -27 18 -82 32 -122 13 -39
24 -78 24 -87 0 -9 9 -33 20 -53 11 -21 20 -44 20 -51 0 -35 144 -317 228
-449 58 -89 123 -180 153 -212 38 -42 55 -81 38 -91 -6 -4 -75 -9 -152 -12
-117 -4 -151 -9 -191 -26 -27 -12 -53 -22 -59 -22 -15 0 -126 -57 -162 -83
-58 -42 -80 -62 -128 -118 -62 -74 -63 -104 -4 -140 49 -31 149 -79 164 -79 6
0 39 -9 73 -20 92 -30 228 -27 355 6 54 14 110 34 123 45 14 10 30 19 37 19 6
0 37 25 67 55 42 41 59 67 67 101 11 44 12 45 44 39 37 -8 86 -60 87 -93 0
-41 -51 -146 -93 -190 -85 -87 -192 -127 -347 -127 -210 0 -454 61 -685 170
-234 112 -439 318 -540 545 -8 19 -20 43 -26 54 -43 76 -106 342 -115 485 -3
53 -15 146 -27 206 -20 102 -22 139 -21 495 0 253 4 412 12 465 7 44 19 130
27 192 8 62 20 125 28 140 8 15 17 42 21 58 13 53 99 233 139 290 15 22 38 56
51 75 25 38 155 170 167 170 4 0 20 10 36 23 53 43 205 101 308 118 56 9 320
4 348 -6z m1468 -2635 c19 0 34 -8 45 -25 44 -67 -71 -172 -213 -194 -91 -14
-143 -14 -240 1 -64 9 -83 16 -106 40 l-29 29 38 27 c69 49 148 81 250 101
124 25 161 29 198 25 16 -2 41 -4 57 -4z m-1016 -364 c18 -13 18 -15 2 -58
-21 -55 -73 -99 -153 -129 -89 -35 -265 -38 -348 -8 -82 30 -87 35 -74 65 14
30 92 75 189 108 91 31 105 33 250 35 84 1 120 -3 134 -13z"/>
<path d="M7550 7614 c-69 -8 -187 -45 -241 -74 -104 -56 -179 -150 -139 -175
5 -3 14 -23 20 -44 21 -77 143 -173 275 -216 98 -32 131 -37 208 -31 85 6 238
48 257 71 7 8 18 15 25 15 21 0 118 104 142 151 28 57 39 140 24 177 -13 32
-88 66 -228 103 -76 21 -259 33 -343 23z m295 -160 c108 -28 120 -34 128 -64
5 -21 -44 -81 -93 -112 -87 -57 -302 -84 -360 -47 -14 9 -37 19 -52 23 -38 9
-113 63 -129 93 -12 23 -11 27 21 53 25 21 64 36 135 54 134 33 224 33 350 0z"/>
<path d="M6235 6881 c-22 -5 -57 -16 -77 -25 -21 -9 -45 -16 -55 -16 -10 0
-40 -11 -68 -25 -27 -13 -53 -25 -57 -25 -26 -1 -120 -80 -180 -151 -74 -87
-66 -114 53 -180 125 -69 289 -99 440 -80 152 19 253 67 335 158 49 53 67 112
68 208 0 122 -29 138 -254 141 -91 2 -183 -1 -205 -5z m300 -144 c27 -21 12
-80 -33 -128 -59 -62 -156 -92 -302 -92 -103 0 -122 3 -182 28 -38 15 -68 31
-68 36 0 30 120 104 220 135 82 26 124 31 241 33 74 1 111 -3 124 -12z"/>
</g>
</svg>
